<?xml version="1.0" encoding="UTF-8" standalone="no"?>
<!DOCTYPE svg PUBLIC "-//W3C//DTD SVG 1.1//EN" "http://www.w3.org/Graphics/SVG/1.1/DTD/svg11.dtd">
<svg width="100%" height="100%" viewBox="0 0 16 16" version="1.1" xmlns="http://www.w3.org/2000/svg" xmlns:xlink="http://www.w3.org/1999/xlink" xml:space="preserve" xmlns:serif="http://www.serif.com/" style="fill-rule:evenodd;clip-rule:evenodd;stroke-linejoin:round;stroke-miterlimit:2;">
    <g transform="matrix(1.33333,0,0,1.6,-5.33333,-1.6)">
        <path d="M7,1C8.656,1 10,2.12 10,3.5C10,4.88 8,11 7,11C6,11 4,4.88 4,3.5C4,2.12 5.344,1 7,1ZM7,7.53C7.599,5.949 8.125,4.148 8.125,3.5C8.125,2.983 7.621,2.563 7,2.563C6.379,2.563 5.875,2.983 5.875,3.5C5.875,4.148 6.401,5.949 7,7.53Z"/>
    </g>
    <g transform="matrix(2.66667,0,0,2,-26.6667,-18)">
        <path d="M11.5,9C12.328,9 13,9.896 13,11C13,12.104 12.328,13 11.5,13C10.672,13 10,12.104 10,11C10,9.896 10.672,9 11.5,9ZM11.5,10.25C11.81,10.25 12.063,10.586 12.063,11C12.063,11.414 11.81,11.75 11.5,11.75C11.19,11.75 10.938,11.414 10.938,11C10.938,10.586 11.19,10.25 11.5,10.25Z"/>
    </g>
    <g transform="matrix(6.12323e-17,-1,1.4,8.57253e-17,0.6,11)">
        <path d="M7,1C8.656,1 10,2.12 10,3.5C10,4.88 8,11 7,11C6,11 4,4.88 4,3.5C4,2.12 5.344,1 7,1ZM7,9.673C7.052,9.583 7.102,9.492 7.146,9.403C8.041,7.589 9,4.429 9,3.5C9,2.542 8.15,1.714 7,1.714C5.85,1.714 5,2.542 5,3.5C5,4.429 5.959,7.589 6.854,9.403C6.898,9.492 6.948,9.583 7,9.673Z"/>
    </g>
</svg>
